<?xml version="1.0" encoding="utf-8"?>
<!-- Generator: Adobe Illustrator 16.0.0, SVG Export Plug-In . SVG Version: 6.00 Build 0)  -->
<!DOCTYPE svg PUBLIC "-//W3C//DTD SVG 1.1//EN" "http://www.w3.org/Graphics/SVG/1.1/DTD/svg11.dtd">
<svg version="1.1" id="Layer_1" xmlns="http://www.w3.org/2000/svg" xmlns:xlink="http://www.w3.org/1999/xlink" x="0px" y="0px"
	 width="612px" height="126.667px" viewBox="0 308.833 612 126.667" enable-background="new 0 308.833 612 126.667"
	 xml:space="preserve">
<g>
	<g>
		<defs>
			<rect id="SVGID_1_" y="310.442" width="612" height="171.117"/>
		</defs>
		<clipPath id="SVGID_2_">
			<use xlink:href="#SVGID_1_"  overflow="visible"/>
		</clipPath>
		<path clip-path="url(#SVGID_2_)" fill="#FFCF00" d="M112.804,366.773c0,31.138-25.193,56.332-56.331,56.332S0,397.911,0,366.773
			c0-31.138,25.193-56.331,56.331-56.331C87.469,310.442,112.804,335.635,112.804,366.773"/>
	</g>
	<g>
		<defs>
			<rect id="SVGID_3_" y="310.442" width="612" height="171.117"/>
		</defs>
		<clipPath id="SVGID_4_">
			<use xlink:href="#SVGID_3_"  overflow="visible"/>
		</clipPath>
		<path clip-path="url(#SVGID_4_)" d="M121.721,419.282l8.067,1.841l-0.566,11.605l-14.012-0.283
			c1.557-3.538,4.671-4.246,7.218-4.954c-5.661-3.255-13.871-4.953-17.692-10.19c-3.68,4.388-5.237,7.644-8.067,14.437l-0.283,0.708
			l-17.268,0.425c0.566-3.538,2.689-5.237,11.04-5.803l0.425-13.163c-11.182,1.132-14.72,12.172-33.12,10.757l-0.142,1.981
			l-21.796,6.369H14.153c-0.566-1.84,0.566-3.821,3.68-4.954c3.255-1.132,8.067-0.283,9.483-0.142l8.634-6.652l-17.692-11.039
			c-2.123-1.416-0.566-3.397-8.351-3.114c0-3.396,1.415-5.236,5.944-5.236c3.963,0,5.803,1.132,7.218,3.821
			c0,0,10.898,1.273,11.323,0.99c0.425-0.424,0.425-5.52,0.425-5.52c-3.397,1.273-3.68,2.973-4.529,2.689
			c-0.566-0.142-0.991-1.84-0.849-3.963c1.416,1.132,2.406,1.698,3.114-1.84c-7.077,2.123-10.757-2.265-9.341-5.096
			c0.991,6.369,8.492,4.529,8.775,2.548c0-0.566-0.991-1.699-1.557-1.699c-0.849,0-1.557,0.849-2.689,1.699l-0.283-5.378
			c4.388-1.84,8.492-3.539,12.172-3.539c3.397,0,6.086,0.849,7.643,0.708c1.557-0.283,4.529-1.557,4.529-1.557l-1.132,2.831
			c2.831,3.539,4.387,6.511,5.52,12.88c7.643,5.236,19.957,5.52,37.224,0.142c10.898-3.538,18.541,0,21.796-1.84
			c3.255-1.981,3.114-5.803,1.557-6.936c-1.557-1.132-4.105-3.539-8.634-3.397c-16.984,0.849-44.018,20.381-46.141,2.972
			c-0.142-3.114,4.954-6.51,7.784-7.784c-3.538,3.963-4.812,9.341-0.424,11.747c7.077,3.963,28.449-10.615,40.904-9.624
			c10.757,0.991,11.748,9.341,10.474,12.313c-0.849,2.123-4.813,3.821-4.813,3.821C119.739,411.073,121.013,414.895,121.721,419.282
			 M37.365,389.136c-1.415,0-2.689,0.283-2.689,0.566c-0.142,0.283,0.283,1.132,0.708,1.274
			C35.525,391.117,37.365,389.136,37.365,389.136"/>
	</g>
	<g>
		<defs>
			<rect id="SVGID_5_" y="310.442" width="612" height="171.117"/>
		</defs>
		<clipPath id="SVGID_6_">
			<use xlink:href="#SVGID_5_"  overflow="visible"/>
		</clipPath>
		<path clip-path="url(#SVGID_6_)" d="M159.652,376.822h9.766v7.643c4.388-6.086,10.898-9.2,19.532-9.341
			c3.68,0,7.077,0.566,10.049,1.84c6.936,2.689,10.757,9.341,11.323,19.957v2.689v33.544H199.99v-33.827
			c0-8.209-2.547-13.305-7.643-15.286c-1.84-0.708-3.963-1.132-6.369-1.132c-10.474,0-15.852,5.378-15.852,16.418v33.827h-10.332
			v-56.332H159.652z"/>
	</g>
	<g>
		<defs>
			<rect id="SVGID_7_" y="310.442" width="612" height="171.117"/>
		</defs>
		<clipPath id="SVGID_8_">
			<use xlink:href="#SVGID_7_"  overflow="visible"/>
		</clipPath>
		<path clip-path="url(#SVGID_8_)" d="M229.996,417.726c1.415,4.104,3.963,6.794,7.501,8.209c1.981,0.85,4.104,1.274,6.369,1.274
			c7.785-0.142,12.314-4.104,13.446-11.89h10.757c-0.849,4.954-2.123,8.634-3.821,10.757c-2.548,3.256-5.52,5.52-9.058,6.936
			c-3.539,1.273-7.36,1.981-11.323,1.981c-8.775,0-15.427-2.689-19.957-8.067c-4.387-5.237-6.51-12.172-6.369-20.947
			c0-6.086,0.85-11.606,2.831-16.418c1.698-4.529,4.812-8.067,9.483-10.757c3.963-2.406,8.633-3.538,14.012-3.538
			c15.286,0.142,23.495,7.784,24.627,23.211l0.142,8.067h-40.196C228.58,411.64,229.146,415.319,229.996,417.726 M228.297,398.901
			h29.298c-0.142-5.52-1.274-9.483-3.114-11.606c-2.406-2.831-6.086-4.246-11.04-4.246c-7.785,0-12.597,3.822-14.295,11.323
			L228.297,398.901z"/>
	</g>
	<g>
		<defs>
			<rect id="SVGID_9_" y="310.442" width="612" height="171.117"/>
		</defs>
		<clipPath id="SVGID_10_">
			<use xlink:href="#SVGID_9_"  overflow="visible"/>
		</clipPath>
		<path clip-path="url(#SVGID_10_)" d="M272.739,376.822h36.092v7.643h-14.154v34.11l0.142,3.68l0.424,1.84
			c0.708,2.123,2.689,3.114,6.086,3.114c1.982,0,4.529-0.283,7.644-0.85v7.784c-4.388,0.566-7.785,0.85-10.474,0.85
			c-8.917,0-13.587-3.68-14.012-10.757v-5.803v-34.11h-11.606v-7.501H272.739z"/>
	</g>
	<g>
		<defs>
			<rect id="SVGID_11_" y="310.442" width="612" height="171.117"/>
		</defs>
		<clipPath id="SVGID_12_">
			<use xlink:href="#SVGID_11_"  overflow="visible"/>
		</clipPath>
		<polygon clip-path="url(#SVGID_12_)" points="317.04,424.095 349.026,384.323 318.172,384.323 318.172,376.822 361.058,376.822 
			361.058,385.597 328.646,425.651 362.048,425.651 362.048,433.153 317.04,433.153 		"/>
	</g>
	<g>
		<defs>
			<rect id="SVGID_13_" y="310.442" width="612" height="171.117"/>
		</defs>
		<clipPath id="SVGID_14_">
			<use xlink:href="#SVGID_13_"  overflow="visible"/>
		</clipPath>
		<polygon clip-path="url(#SVGID_14_)" points="380.023,376.822 394.035,423.528 408.047,376.822 421.21,376.822 435.788,423.246 
			449.658,376.822 459.991,376.822 441.167,433.153 429.561,433.153 414.558,384.182 399.696,433.153 387.949,433.153 
			369.125,376.822 		"/>
	</g>
	<g>
		<defs>
			<rect id="SVGID_15_" y="310.442" width="612" height="171.117"/>
		</defs>
		<clipPath id="SVGID_16_">
			<use xlink:href="#SVGID_15_"  overflow="visible"/>
		</clipPath>
		<path clip-path="url(#SVGID_16_)" d="M474.852,417.726c1.416,4.104,3.964,6.794,7.502,8.209c1.981,0.85,4.104,1.274,6.369,1.274
			c7.784-0.142,12.313-4.104,13.445-11.89h10.757c-0.849,4.954-2.123,8.634-3.821,10.757c-2.548,3.256-5.52,5.52-9.059,6.936
			c-3.538,1.273-7.359,1.981-11.322,1.981c-8.775,0-15.428-2.689-19.957-8.067c-4.388-5.237-6.511-12.172-6.369-20.947
			c0-6.086,0.85-11.606,2.831-16.418c1.698-4.529,4.813-8.067,9.483-10.757c3.963-2.406,8.633-3.538,14.012-3.538
			c15.285,0.142,23.495,7.784,24.627,23.211l0.142,8.067h-40.196C473.437,411.64,474.003,415.319,474.852,417.726 M473.153,398.901
			h29.439c-0.142-5.52-1.273-9.483-3.113-11.606c-2.406-2.831-6.086-4.246-11.04-4.246c-7.784,0-12.597,3.822-14.295,11.323
			L473.153,398.901z"/>
	</g>
	<g>
		<defs>
			<rect id="SVGID_17_" y="310.442" width="612" height="171.117"/>
		</defs>
		<clipPath id="SVGID_18_">
			<use xlink:href="#SVGID_17_"  overflow="visible"/>
		</clipPath>
		<path clip-path="url(#SVGID_18_)" d="M523.54,376.822h10.332v6.228l2.265-2.547c1.698-1.699,3.539-2.972,5.662-3.822
			c2.405-0.991,4.953-1.415,7.643-1.557h3.255v9.625l-3.538-0.283c-5.944,0-10.19,2.265-12.738,6.652
			c-1.698,2.972-2.548,7.926-2.548,14.578v27.316H523.54V376.822z"/>
	</g>
	<g>
		<defs>
			<rect id="SVGID_19_" y="310.442" width="612" height="171.117"/>
		</defs>
		<clipPath id="SVGID_20_">
			<use xlink:href="#SVGID_19_"  overflow="visible"/>
		</clipPath>
		<polygon clip-path="url(#SVGID_20_)" points="594.732,376.822 607.329,376.822 584.259,400.883 612,433.153 598.554,433.153 
			572.512,402.864 572.512,433.153 562.038,433.153 562.038,339.598 572.512,339.598 572.512,400.034 		"/>
	</g>
	<g>
		<defs>
			<rect id="SVGID_21_" y="310.442" width="612" height="171.117"/>
		</defs>
		<clipPath id="SVGID_22_">
			<use xlink:href="#SVGID_21_"  overflow="visible"/>
		</clipPath>
		<path clip-path="url(#SVGID_22_)" d="M159.652,366.773v-27.175h8.351c5.944,0,11.04,1.415,11.04,8.351
			c0,4.954-3.397,8.209-9.341,8.351h-4.246v10.474H159.652z M165.455,351.77c3.255-0.142,7.36,0.991,7.36-3.821
			c0-4.813-4.246-3.68-7.36-3.822V351.77z"/>
	</g>
	<g>
		<defs>
			<rect id="SVGID_23_" y="310.442" width="612" height="171.117"/>
		</defs>
		<clipPath id="SVGID_24_">
			<use xlink:href="#SVGID_23_"  overflow="visible"/>
		</clipPath>
		<polygon clip-path="url(#SVGID_24_)" points="192.488,366.773 192.488,339.598 198.292,339.598 198.292,350.355 208.624,350.355 
			208.624,339.598 214.426,339.598 214.426,366.773 208.624,366.773 208.624,354.884 198.292,354.884 198.292,366.773 		"/>
	</g>
	<g>
		<defs>
			<rect id="SVGID_25_" y="310.442" width="612" height="171.117"/>
		</defs>
		<clipPath id="SVGID_26_">
			<use xlink:href="#SVGID_25_"  overflow="visible"/>
		</clipPath>
		<path clip-path="url(#SVGID_26_)" d="M228.722,353.186c0-7.926,4.104-14.154,13.021-14.154c8.917,0,13.021,6.086,13.021,14.154
			c0,7.926-4.104,14.153-13.021,14.153C232.685,367.339,228.722,361.111,228.722,353.186 M234.949,353.186
			c0,4.67,1.132,9.907,6.793,9.907c5.803,0,6.794-5.237,6.794-9.907c0-4.671-1.132-9.908-6.794-9.908
			C235.94,343.278,234.949,348.515,234.949,353.186"/>
	</g>
	<g>
		<defs>
			<rect id="SVGID_27_" y="310.442" width="612" height="171.117"/>
		</defs>
		<clipPath id="SVGID_28_">
			<use xlink:href="#SVGID_27_"  overflow="visible"/>
		</clipPath>
		<polygon clip-path="url(#SVGID_28_)" points="266.37,339.598 288.308,339.598 288.308,344.127 280.241,344.127 280.241,366.773 
			274.438,366.773 274.438,344.127 266.37,344.127 		"/>
	</g>
	<g>
		<defs>
			<rect id="SVGID_29_" y="310.442" width="612" height="171.117"/>
		</defs>
		<clipPath id="SVGID_30_">
			<use xlink:href="#SVGID_29_"  overflow="visible"/>
		</clipPath>
		<path clip-path="url(#SVGID_30_)" d="M299.914,353.186c0-7.926,4.104-14.154,13.021-14.154c8.916,0,13.021,6.086,13.021,14.154
			c0,7.926-4.104,14.153-13.021,14.153C304.019,367.339,299.914,361.111,299.914,353.186 M306.142,353.186
			c0,4.67,1.132,9.907,6.794,9.907c5.803,0,6.793-5.237,6.793-9.907c0-4.671-1.132-9.908-6.793-9.908
			C307.273,343.278,306.142,348.515,306.142,353.186"/>
	</g>
	<g>
		<defs>
			<rect id="SVGID_31_" y="310.442" width="612" height="171.117"/>
		</defs>
		<clipPath id="SVGID_32_">
			<use xlink:href="#SVGID_31_"  overflow="visible"/>
		</clipPath>
		<polygon clip-path="url(#SVGID_32_)" points="336.854,339.598 343.224,339.598 350.301,360.97 350.301,360.97 357.377,339.598 
			363.181,339.598 353.131,366.773 346.904,366.773 		"/>
	</g>
	<g>
		<defs>
			<rect id="SVGID_33_" y="310.442" width="612" height="171.117"/>
		</defs>
		<clipPath id="SVGID_34_">
			<use xlink:href="#SVGID_33_"  overflow="visible"/>
		</clipPath>
		<path clip-path="url(#SVGID_34_)" d="M374.078,353.186c0-7.926,4.105-14.154,13.021-14.154c8.917,0,13.021,6.086,13.021,14.154
			c0,7.926-4.104,14.153-13.021,14.153C378.042,367.339,374.078,361.111,374.078,353.186 M380.165,353.186
			c0,4.67,1.132,9.907,6.793,9.907c5.804,0,6.794-5.237,6.794-9.907c0-4.671-1.132-9.908-6.794-9.908
			C381.297,343.278,380.165,348.515,380.165,353.186"/>
	</g>
	<g>
		<defs>
			<rect id="SVGID_35_" y="310.442" width="612" height="171.117"/>
		</defs>
		<clipPath id="SVGID_36_">
			<use xlink:href="#SVGID_35_"  overflow="visible"/>
		</clipPath>
		<polygon clip-path="url(#SVGID_36_)" points="414.416,366.773 414.416,339.598 420.219,339.598 420.219,362.244 431.967,362.244 
			431.967,366.773 		"/>
	</g>
	<g>
		<defs>
			<rect id="SVGID_37_" y="310.442" width="612" height="171.117"/>
		</defs>
		<clipPath id="SVGID_38_">
			<use xlink:href="#SVGID_37_"  overflow="visible"/>
		</clipPath>
		<polygon clip-path="url(#SVGID_38_)" points="440.034,339.598 461.973,339.598 461.973,344.127 453.904,344.127 453.904,366.773 
			448.102,366.773 448.102,344.127 440.034,344.127 		"/>
	</g>
	<g>
		<defs>
			<rect id="SVGID_39_" y="310.442" width="612" height="171.117"/>
		</defs>
		<clipPath id="SVGID_40_">
			<use xlink:href="#SVGID_39_"  overflow="visible"/>
		</clipPath>
		<path clip-path="url(#SVGID_40_)" d="M470.04,366.773l9.766-27.033h6.936l9.482,27.033h-5.803l-1.981-5.803h-10.757l-1.981,5.803
			H470.04z M486.883,356.441l-3.681-11.606h-0.142l-3.963,11.606H486.883z"/>
	</g>
	<g>
		<defs>
			<rect id="SVGID_41_" y="310.442" width="612" height="171.117"/>
		</defs>
		<clipPath id="SVGID_42_">
			<use xlink:href="#SVGID_41_"  overflow="visible"/>
		</clipPath>
		<rect x="509.104" y="339.598" clip-path="url(#SVGID_42_)" width="5.803" height="27.033"/>
	</g>
	<g>
		<defs>
			<rect id="SVGID_43_" y="310.442" width="612" height="171.117"/>
		</defs>
		<clipPath id="SVGID_44_">
			<use xlink:href="#SVGID_43_"  overflow="visible"/>
		</clipPath>
		<polygon clip-path="url(#SVGID_44_)" points="535.854,351.346 535.995,351.346 544.912,339.598 551.706,339.598 541.799,351.77 
			552.696,366.773 545.337,366.773 535.995,352.902 535.854,352.902 535.854,366.773 530.051,366.773 530.051,339.598 
			535.854,339.598 		"/>
	</g>
</g>
<g>
	<g>
		<defs>
			<rect id="SVGID_45_" y="310.442" width="612" height="171.117"/>
		</defs>
		<clipPath id="SVGID_46_">
			<use xlink:href="#SVGID_45_"  overflow="visible"/>
		</clipPath>
		<path clip-path="url(#SVGID_46_)" d="M159.652,480.992v-20.806h7.501c3.114,0,5.803,1.84,5.803,5.236
			c0,2.265-1.698,4.246-3.821,4.671l0,0c2.831,0.425,4.67,2.265,4.67,5.237c0,2.688-1.698,5.52-6.228,5.52h-7.926V480.992z
			 M166.021,469.387c2.406,0,4.812-0.991,4.812-3.822c0-2.972-2.548-3.68-4.954-3.68h-4.388v7.502H166.021z M161.492,479.294h4.529
			c3.538,0,5.661-0.85,5.661-4.104c0-3.539-2.831-4.104-6.793-4.104h-3.397V479.294L161.492,479.294z"/>
	</g>
	<g>
		<defs>
			<rect id="SVGID_47_" y="310.442" width="612" height="171.117"/>
		</defs>
		<clipPath id="SVGID_48_">
			<use xlink:href="#SVGID_47_"  overflow="visible"/>
		</clipPath>
		<path clip-path="url(#SVGID_48_)" d="M176.07,480.992l8.209-20.806h2.123l8.351,20.806h-1.981l-2.265-5.661h-10.332l-2.123,5.661
			H176.07z M189.941,473.773l-4.529-11.747l-4.529,11.747H189.941z"/>
	</g>
	<g>
		<defs>
			<rect id="SVGID_49_" y="310.442" width="612" height="171.117"/>
		</defs>
		<clipPath id="SVGID_50_">
			<use xlink:href="#SVGID_49_"  overflow="visible"/>
		</clipPath>
		<path clip-path="url(#SVGID_50_)" d="M203.67,460.328c6.793,0,10.756,3.538,10.756,10.332c0,6.936-3.821,10.332-10.756,10.332
			h-5.662v-20.806h5.662V460.328z M204.094,479.294c5.803,0,8.209-3.397,8.209-8.634c0-6.086-3.538-8.775-9.483-8.634h-2.972v17.409
			h4.246V479.294z"/>
	</g>
	<g>
		<defs>
			<rect id="SVGID_51_" y="310.442" width="612" height="171.117"/>
		</defs>
		<clipPath id="SVGID_52_">
			<use xlink:href="#SVGID_51_"  overflow="visible"/>
		</clipPath>
		<polygon clip-path="url(#SVGID_52_)" points="219.097,480.992 219.097,460.328 231.411,460.328 231.411,462.026 220.937,462.026 
			220.937,469.387 230.986,469.387 230.986,471.227 220.937,471.227 220.937,479.294 231.835,479.294 231.835,480.992 		"/>
	</g>
	<g>
		<defs>
			<rect id="SVGID_53_" y="310.442" width="612" height="171.117"/>
		</defs>
		<clipPath id="SVGID_54_">
			<use xlink:href="#SVGID_53_"  overflow="visible"/>
		</clipPath>
		<polygon clip-path="url(#SVGID_54_)" points="235.94,460.328 238.063,460.328 249.527,478.586 249.527,478.586 249.527,460.328 
			251.367,460.328 251.367,480.992 249.103,480.992 237.78,463.018 237.78,463.018 237.78,480.992 235.94,480.992 		"/>
	</g>
	<g>
		<defs>
			<rect id="SVGID_55_" y="310.442" width="612" height="171.117"/>
		</defs>
		<clipPath id="SVGID_56_">
			<use xlink:href="#SVGID_55_"  overflow="visible"/>
		</clipPath>
		<rect x="255.472" y="472.5" clip-path="url(#SVGID_56_)" width="7.218" height="1.698"/>
	</g>
	<g>
		<defs>
			<rect id="SVGID_57_" y="310.442" width="612" height="171.117"/>
		</defs>
		<clipPath id="SVGID_58_">
			<use xlink:href="#SVGID_57_"  overflow="visible"/>
		</clipPath>
		<polygon clip-path="url(#SVGID_58_)" points="271.89,480.992 269.342,480.992 263.822,460.328 265.804,460.328 270.758,479.152 
			270.758,479.152 276.844,460.328 279.108,460.328 285.478,479.152 285.478,479.152 290.29,460.328 292.129,460.328 
			286.609,480.992 284.062,480.992 277.976,462.168 277.976,462.168 		"/>
	</g>
	<g>
		<defs>
			<rect id="SVGID_59_" y="310.442" width="612" height="171.117"/>
		</defs>
		<clipPath id="SVGID_60_">
			<use xlink:href="#SVGID_59_"  overflow="visible"/>
		</clipPath>
		<path clip-path="url(#SVGID_60_)" d="M297.366,460.328v13.445c0.142,3.822,2.265,6.086,5.803,6.086
			c3.397,0,5.52-2.264,5.803-6.086v-13.445h1.84v13.445c0,4.529-2.548,7.785-7.643,7.785s-7.501-3.256-7.643-7.785v-13.445H297.366z
			 M299.631,454.384h2.123v2.547h-2.123V454.384z M304.584,454.384h2.124v2.547h-2.124V454.384z"/>
	</g>
	<g>
		<defs>
			<rect id="SVGID_61_" y="310.442" width="612" height="171.117"/>
		</defs>
		<clipPath id="SVGID_62_">
			<use xlink:href="#SVGID_61_"  overflow="visible"/>
		</clipPath>
		<path clip-path="url(#SVGID_62_)" d="M318.172,480.992h-1.84v-20.806h6.794c1.84,0,3.255,0.142,4.953,1.132
			c1.416,0.85,2.123,2.406,2.123,4.388c0,2.265-1.557,3.821-3.963,4.529l0,0c2.689,0.425,3.256,2.265,3.539,4.671
			c0.424,3.396,0.283,4.953,1.132,6.228h-2.123c-0.425-1.415-0.566-2.831-0.708-4.388c-0.424-4.813-0.707-5.52-4.528-5.52h-5.096
			v9.766H318.172z M322.135,469.387c2.689,0,5.944-0.142,5.944-3.681c0-3.963-3.68-3.68-5.803-3.68h-4.246v7.501h4.104V469.387z"/>
	</g>
	<g>
		<defs>
			<rect id="SVGID_63_" y="310.442" width="612" height="171.117"/>
		</defs>
		<clipPath id="SVGID_64_">
			<use xlink:href="#SVGID_63_"  overflow="visible"/>
		</clipPath>
		<polygon clip-path="url(#SVGID_64_)" points="339.544,462.026 332.892,462.026 332.892,460.328 348.036,460.328 348.036,462.026 
			341.525,462.026 341.525,480.992 339.686,480.992 		"/>
	</g>
	<g>
		<defs>
			<rect id="SVGID_65_" y="310.442" width="612" height="171.117"/>
		</defs>
		<clipPath id="SVGID_66_">
			<use xlink:href="#SVGID_65_"  overflow="visible"/>
		</clipPath>
		<polygon clip-path="url(#SVGID_66_)" points="357.095,462.026 350.301,462.026 350.301,460.328 365.587,460.328 365.587,462.026 
			358.935,462.026 358.935,480.992 357.095,480.992 		"/>
	</g>
	<g>
		<defs>
			<rect id="SVGID_67_" y="310.442" width="612" height="171.117"/>
		</defs>
		<clipPath id="SVGID_68_">
			<use xlink:href="#SVGID_67_"  overflow="visible"/>
		</clipPath>
		<polygon clip-path="url(#SVGID_68_)" points="368.983,480.992 368.983,460.328 381.297,460.328 381.297,462.026 370.823,462.026 
			370.823,469.387 381.014,469.387 381.014,471.227 370.823,471.227 370.823,479.294 381.863,479.294 381.863,480.992 		"/>
	</g>
	<g>
		<defs>
			<rect id="SVGID_69_" y="310.442" width="612" height="171.117"/>
		</defs>
		<clipPath id="SVGID_70_">
			<use xlink:href="#SVGID_69_"  overflow="visible"/>
		</clipPath>
		<polygon clip-path="url(#SVGID_70_)" points="385.968,480.992 385.968,460.328 388.939,460.328 396.725,478.444 404.65,460.328 
			407.623,460.328 407.623,480.992 405.641,480.992 405.641,461.885 405.641,461.885 397.715,480.992 395.733,480.992 
			387.808,461.885 387.808,461.885 387.808,480.992 		"/>
	</g>
	<g>
		<defs>
			<rect id="SVGID_71_" y="310.442" width="612" height="171.117"/>
		</defs>
		<clipPath id="SVGID_72_">
			<use xlink:href="#SVGID_71_"  overflow="visible"/>
		</clipPath>
		<path clip-path="url(#SVGID_72_)" d="M413.143,480.992v-20.806h7.501c3.114,0,5.804,1.84,5.804,5.236
			c0,2.265-1.699,4.246-3.822,4.671l0,0c2.831,0.425,4.671,2.265,4.671,5.237c0,2.688-1.698,5.52-6.228,5.52h-7.926V480.992z
			 M419.512,469.387c2.406,0,4.813-0.991,4.813-3.822c0-2.972-2.548-3.68-4.954-3.68h-4.388v7.502H419.512z M414.982,479.294h4.529
			c3.538,0,5.661-0.85,5.661-4.104c0-3.539-2.83-4.104-6.794-4.104h-3.396V479.294L414.982,479.294z"/>
	</g>
	<g>
		<defs>
			<rect id="SVGID_73_" y="310.442" width="612" height="171.117"/>
		</defs>
		<clipPath id="SVGID_74_">
			<use xlink:href="#SVGID_73_"  overflow="visible"/>
		</clipPath>
		<polygon clip-path="url(#SVGID_74_)" points="431.967,480.992 431.967,460.328 444.422,460.328 444.422,462.026 433.948,462.026 
			433.948,469.387 443.997,469.387 443.997,471.227 433.948,471.227 433.948,479.294 444.847,479.294 444.847,480.992 		"/>
	</g>
	<g>
		<defs>
			<rect id="SVGID_75_" y="310.442" width="612" height="171.117"/>
		</defs>
		<clipPath id="SVGID_76_">
			<use xlink:href="#SVGID_75_"  overflow="visible"/>
		</clipPath>
		<path clip-path="url(#SVGID_76_)" d="M450.933,480.992h-1.84v-20.806h6.794c1.84,0,3.255,0.142,4.953,1.132
			c1.415,0.85,2.123,2.406,2.123,4.388c0,2.265-1.557,3.821-3.963,4.529l0,0c2.689,0.425,3.255,2.265,3.538,4.671
			c0.425,3.396,0.283,4.953,1.133,6.228h-2.123c-0.425-1.415-0.566-2.831-0.708-4.388c-0.425-4.813-0.708-5.52-4.529-5.52h-5.095
			v9.766H450.933z M454.896,469.387c2.689,0,5.944-0.142,5.944-3.681c0-3.963-3.68-3.68-5.803-3.68h-4.246v7.501h4.104V469.387z"/>
	</g>
	<g>
		<defs>
			<rect id="SVGID_77_" y="310.442" width="612" height="171.117"/>
		</defs>
		<clipPath id="SVGID_78_">
			<use xlink:href="#SVGID_77_"  overflow="visible"/>
		</clipPath>
		<path clip-path="url(#SVGID_78_)" d="M483.061,470.519v9.766c-2.547,0.991-4.812,1.274-7.501,1.274
			c-5.661,0-8.917-4.388-8.917-10.898c0-5.379,2.831-10.898,8.917-10.898c3.396,0,6.936,1.84,7.36,5.52h-2.123
			c-0.425-2.688-2.689-3.821-5.237-3.821c-4.954,0-6.794,4.813-6.794,9.059c0,5.236,2.265,9.059,7.785,9.059
			c1.557,0,3.113-0.425,4.67-0.85v-6.652h-5.236v-1.698h7.076V470.519z"/>
	</g>
</g>
</svg>
